<svg xmlns="http://www.w3.org/2000/svg" width="60" height="60" viewBox="0 0 60 60"><g><g><g><g><path fill="none" stroke="#ef0000" stroke-linecap="round" stroke-linejoin="round" stroke-miterlimit="20" stroke-width="2.5" d="M22.286 19a4.915 4.915 0 0 1 0 7c-1.953 2-5.119 2-7.072 0a4.915 4.915 0 0 1 0-7c1.953-2 5.119-2 7.072 0"/></g><g><path fill="none" stroke="#ef0000" stroke-linecap="round" stroke-linejoin="round" stroke-miterlimit="20" stroke-width="2.5" d="M44.42 16.83a6.25 6.25 0 0 1 0 8.84c-2.42 2.44-6.42 2.44-8.84 0a6.25 6.25 0 0 1 0-8.84c2.42-2.44 6.42-2.44 8.84 0"/></g><g><path fill="none" stroke="#ef0000" stroke-linecap="round" stroke-linejoin="round" stroke-miterlimit="20" stroke-width="2.5" d="M51.25 45v0-2.5a7.5 7.5 0 0 0-7.5-7.5h-7.5a7.5 7.5 0 0 0-7.5 7.5V45"/></g><g><path fill="none" stroke="#ef0000" stroke-linecap="round" stroke-linejoin="round" stroke-miterlimit="20" stroke-width="2.5" d="M21.25 35v0h-5a7.5 7.5 0 0 0-7.5 7.5V45"/></g></g><g/></g></g></svg>