<svg xmlns="http://www.w3.org/2000/svg" width="60" height="60" viewBox="0 0 60 60"><g><g><g><g/><g><path fill="none" stroke="#ef0000" stroke-linecap="round" stroke-linejoin="round" stroke-miterlimit="20" stroke-width="2.5" d="M46.25 56.25a8.75 8.75 0 1 0 0-17.5 8.75 8.75 0 0 0 0 17.5z"/></g><g><path fill="none" stroke="#ef0000" stroke-linecap="round" stroke-linejoin="round" stroke-miterlimit="20" stroke-width="2.5" d="M49.163 46v0l-3.644 3.686v0l-2.189-2.188v0"/></g><g><path fill="none" stroke="#ef0000" stroke-linecap="round" stroke-linejoin="round" stroke-miterlimit="20" stroke-width="2.5" d="M19.59 20h20.826a2.5 2.5 0 0 0 2.5-2.5v-2.087A12.915 12.915 0 0 0 30 2.5v0a12.911 12.911 0 0 0-12.91 12.913V17.5a2.5 2.5 0 0 0 2.5 2.5z"/></g><g><path fill="none" stroke="#ef0000" stroke-linecap="round" stroke-linejoin="round" stroke-miterlimit="20" stroke-width="2.5" d="M16.25 20h27.5"/></g><g><path fill="none" stroke="#ef0000" stroke-linecap="round" stroke-linejoin="round" stroke-miterlimit="20" stroke-width="2.5" d="M40 20v5c0 5.522-4.477 10-10 10v0c-5.523 0-10-4.478-10-10v-5 0"/></g><g><path fill="none" stroke="#ef0000" stroke-linecap="round" stroke-linejoin="round" stroke-miterlimit="20" stroke-width="2.5" d="M24.755 33.51l-1.81 7.24"/></g><g><path fill="none" stroke="#ef0000" stroke-linecap="round" stroke-linejoin="round" stroke-miterlimit="20" stroke-width="2.5" d="M33.75 3v3.498a3.75 3.75 0 0 1-3.75 3.75v0a3.75 3.75 0 0 1-3.75-3.75V3v0"/></g><g><path fill="none" stroke="#ef0000" stroke-linecap="round" stroke-linejoin="round" stroke-miterlimit="20" stroke-width="2.5" d="M35.252 33.51l.996 3.988"/></g><g><path fill="none" stroke="#ef0000" stroke-linecap="round" stroke-linejoin="round" stroke-miterlimit="20" stroke-width="2.5" d="M32.5 42.442a13.8 13.8 0 0 1-10.158-2.062h0c-.5-.38-1.11-.454-1.698-.38l-7.115 1.467A7.477 7.477 0 0 0 7.5 48.82V50"/></g></g></g></g></svg>