<svg xmlns="http://www.w3.org/2000/svg" width="34" height="34" viewBox="0 0 34 34"><g><g><g><g/><g><path fill="none" stroke="#ef0000" stroke-linecap="round" stroke-linejoin="round" stroke-miterlimit="20" stroke-width="1.5" d="M11 29.504v0c-1.087.496-2.37.14-2.914-.9a2.125 2.125 0 0 1-.208-1.355L9 20.679v0l-4.802-4.624v0a2.125 2.125 0 0 1 1.172-3.642l6.7-.958v0l3.024-6.033v0a2.125 2.125 0 0 1 3.808 0l3.025 6.033v0l6.699.958v0a2.125 2.125 0 0 1 1.172 3.642L25 20.68v0l1.119 6.57v0a2.125 2.125 0 0 1-1.721 2.465A2.3 2.3 0 0 1 23 29.505l-6-3.124v0z"/></g></g></g></g></svg>