<svg xmlns="http://www.w3.org/2000/svg" width="34" height="34" viewBox="0 0 34 34"><g><g><g><g><g><path fill="none" stroke="#ef0000" stroke-linecap="round" stroke-linejoin="round" stroke-miterlimit="20" stroke-width="1.5" d="M8.5 14.167v0-7.084 0a2.833 2.833 0 0 1 2.833-2.833h15.584v0a2.833 2.833 0 0 1 2.833 2.833v19.834a2.833 2.833 0 0 1-2.833 2.833H21.25v0"/></g><g><path fill="none" stroke="#ef0000" stroke-linecap="round" stroke-linejoin="round" stroke-miterlimit="20" stroke-width="1.5" d="M14.17 9.918h9.917"/></g><g><path fill="none" stroke="#ef0000" stroke-linecap="round" stroke-linejoin="round" stroke-miterlimit="20" stroke-width="1.5" d="M17 15.588h7.083"/></g><g><path fill="none" stroke="#ef0000" stroke-linecap="round" stroke-linejoin="round" stroke-miterlimit="20" stroke-width="1.5" d="M24.083 21.248H21.25"/></g><g><path fill="none" stroke="#ef0000" stroke-linecap="round" stroke-linejoin="round" stroke-miterlimit="20" stroke-width="1.5" d="M7 29.712v0H5v0c-.395 0-.75-.355-.75-.792v0-6.208 0c0-.437.355-.792.75-.792h2v0c.445.007.8.373.793.819 0 0 0 0 0 0V29c-.023.392-.373.718-.793.712z"/></g><g><path fill="none" stroke="#ef0000" stroke-linecap="round" stroke-linejoin="round" stroke-miterlimit="20" stroke-width="1.5" d="M7.79 23.605v0l2.618-4.274v0c.592-.9 1.731-1.18 2.592-.627.602.296.946.958.95 1.619v2.266h2.139v0c.643 0 1.243.323 1.598.859v0c.313.475.408 1.065.25 1.614l-1.036 3.629v0a1.428 1.428 0 0 1-1.372 1.034h-5.073v0c-.456 0-.814-.144-1.133-.408L7.79 28v0"/></g></g><g/></g></g></g></svg>