<svg xmlns="http://www.w3.org/2000/svg" width="34" height="34" viewBox="0 0 34 34"><g><g><g><g transform="rotate(180 17 17)"/><g><path fill="none" stroke="#ef0000" stroke-linecap="round" stroke-linejoin="round" stroke-miterlimit="20" stroke-width="1.5" d="M21.251 14.17v0s4.961-4.073 4.961-7.792a4.954 4.954 0 0 0-4.96-4.958 4.96 4.96 0 0 0-4.962 4.958c0 3.72 4.961 7.792 4.961 7.792z"/></g><g><path fill="none" stroke="#ef0000" stroke-linecap="round" stroke-linejoin="round" stroke-miterlimit="20" stroke-width="1.5" d="M21.25 6.164a.354.354 0 1 1-.356.354c0-.195.159-.354.356-.354"/></g><g><path fill="none" stroke="#ef0000" stroke-linecap="round" stroke-linejoin="round" stroke-miterlimit="20" stroke-width="1.5" d="M16.336 5.7C9.605 6 4.25 11.598 4.25 18.415c0 7.042 5.75 12.75 12.75 12.75s12.75-5.708 12.75-12.75A12.54 12.54 0 0 0 25.533 9"/></g><g><path fill="none" stroke="#ef0000" stroke-linecap="round" stroke-linejoin="round" stroke-miterlimit="20" stroke-width="1.5" d="M11.333 29.85v0-.1c0-2.833 5.667-2.499 5.667-5.667 0-2.833-4.25-2.833-4.25-7.083 0-4-2.834-4.25-7.084-4.25H5.58v0"/></g><g><path fill="none" stroke="#ef0000" stroke-linecap="round" stroke-linejoin="round" stroke-miterlimit="20" stroke-width="1.5" d="M25.462 27.937c-.214-.082-.462-.169-.63-.288a4.267 4.267 0 0 1 4.309-7.365c.15.088.276.198.412.3"/></g></g></g></g></svg>