<svg xmlns="http://www.w3.org/2000/svg" width="52" height="52" viewBox="0 0 52 52"><g><g clip-path="url(#clip-BA54B716-3E4E-4E0D-835E-E20B2448C456)"><g><g/><g><path fill="none" stroke="#323232" stroke-linecap="round" stroke-linejoin="round" stroke-miterlimit="20" stroke-width="1.5" d="M17 23.112c.372-1.21 1.509-2.112 2.915-2.112C21.618 21 23 22.298 23 23.902c0 1.434-1.237 2.598-2.763 2.598 1.526 0 2.763 1.164 2.763 2.598C23 30.7 21.62 32 19.915 32c-1.406 0-2.543-.902-2.915-2.112"/></g><g><path fill="none" stroke="#323232" stroke-linecap="round" stroke-linejoin="round" stroke-miterlimit="20" stroke-width="1.5" d="M31 32v0h-3v0-11 0h3c2.19 0 4 1.896 4 4.235v2.532C35 30.104 33.19 32 31 32z"/></g><g><path fill="none" stroke="#323232" stroke-linecap="round" stroke-linejoin="round" stroke-miterlimit="20" stroke-width="1.5" d="M22.206 11.664v0L19 8.473c6.81-2.867 15-1.552 20.528 3.97C46.274 19.152 46.778 29.7 41.067 37"/></g><g><path fill="none" stroke="#323232" stroke-linecap="round" stroke-linejoin="round" stroke-miterlimit="20" stroke-width="1.5" d="M10.932 15c-5.708 7.3-5.207 17.85 1.54 24.558C18 45.078 26.188 46.394 33 43.528l-3.208-3.191v0"/></g></g></g></g></svg>