<svg xmlns="http://www.w3.org/2000/svg" width="24" height="24" viewBox="0 0 24 24"><g><g><g><g><path fill="none" stroke="#ef0000" stroke-linecap="round" stroke-linejoin="round" stroke-miterlimit="20" stroke-width="1.5" d="M17 17.29v0l-1.302 3.06v0c-.233.542-.86.793-1.402.56-.296-.11-.459-.316-.565-.574l-3.65-8.863v0a1.067 1.067 0 0 1 .58-1.393 1.4 1.4 0 0 1 .813 0l8.863 3.65v0c.545.27.804.849.58 1.394-.107.257-.31.463-.566.573L17.29 17v0a.65.65 0 0 0-.29.29z"/></g><g><path fill="none" stroke="#ef0000" stroke-linecap="round" stroke-linejoin="round" stroke-miterlimit="20" stroke-width="1.5" d="M6.36 15.33l-1.12 1.12"/></g><g><path fill="none" stroke="#ef0000" stroke-linecap="round" stroke-linejoin="round" stroke-miterlimit="20" stroke-width="1.5" d="M10.85 3v1.59"/></g><g><path fill="none" stroke="#ef0000" stroke-linecap="round" stroke-linejoin="round" stroke-miterlimit="20" stroke-width="1.5" d="M5.24 5.24l1.12 1.12"/></g><g><path fill="none" stroke="#ef0000" stroke-linecap="round" stroke-linejoin="round" stroke-miterlimit="20" stroke-width="1.5" d="M3 10.85h1.59"/></g><g><path fill="none" stroke="#ef0000" stroke-linecap="round" stroke-linejoin="round" stroke-miterlimit="20" stroke-width="1.5" d="M16.45 5.24l-1.12 1.12"/></g></g><g/></g></g></svg>