<svg xmlns="http://www.w3.org/2000/svg" width="34" height="34" viewBox="0 0 34 34"><g><g><g><path fill="none" stroke="#ef0000" stroke-linecap="round" stroke-linejoin="round" stroke-miterlimit="20" stroke-width="1.5" d="M4 30v0-.707c0-2.145 1.458-3.992 3.483-4.413l4.111-.88c.34 0 .693 0 .981.228v0a7.732 7.732 0 0 0 8.85 0v0c.288-.228.64-.228.98-.228l4.112.88C28.542 25.3 30 27.148 30 29.293V30"/></g><g><path fill="none" stroke="#ef0000" stroke-linecap="round" stroke-linejoin="round" stroke-miterlimit="20" stroke-width="1.5" d="M11.5 30v-6"/></g><g><path fill="none" stroke="#ef0000" stroke-linecap="round" stroke-linejoin="round" stroke-miterlimit="20" stroke-width="1.5" d="M22.5 30v-6"/></g><g><path fill="none" stroke="#ef0000" stroke-linecap="round" stroke-linejoin="round" stroke-miterlimit="20" stroke-width="1.5" d="M11.452 13h12.096A1.44 1.44 0 0 0 25 11.571V10.38c0-1.957-.79-3.834-2.197-5.218A7.563 7.563 0 0 0 17.5 3v0c-1.99 0-3.897.777-5.303 2.161A7.319 7.319 0 0 0 10 10.38v1.192c0 .79.65 1.429 1.452 1.429z"/></g><g><path fill="none" stroke="#ef0000" stroke-linecap="round" stroke-linejoin="round" stroke-miterlimit="20" stroke-width="1.5" d="M9 12.5h16"/></g><g><path fill="none" stroke="#ef0000" stroke-linecap="round" stroke-linejoin="round" stroke-miterlimit="20" stroke-width="1.5" d="M23 13v2.666C23 18.612 20.538 21 17.5 21v0c-3.038 0-5.5-2.388-5.5-5.334V13v0"/></g><g><path fill="none" stroke="#ef0000" stroke-linecap="round" stroke-linejoin="round" stroke-miterlimit="20" stroke-width="1.5" d="M20.138 20l.724 4"/></g><g><path fill="none" stroke="#ef0000" stroke-linecap="round" stroke-linejoin="round" stroke-miterlimit="20" stroke-width="1.5" d="M13.862 20l-.724 4"/></g><g><path fill="none" stroke="#ef0000" stroke-linecap="round" stroke-linejoin="round" stroke-miterlimit="20" stroke-width="1.5" d="M19 3v1.916C19 6.067 18.105 7 17 7v0c-1.105 0-2-.933-2-2.084V3v0"/></g><g><path fill="none" stroke="#ef0000" stroke-linecap="round" stroke-linejoin="round" stroke-miterlimit="20" stroke-width="1.5" d="M10 29.5h14"/></g><g/></g></g></svg>