<svg xmlns="http://www.w3.org/2000/svg" width="34" height="34" viewBox="0 0 34 34"><g><g><g><path fill="none" stroke="#ef0000" stroke-linecap="round" stroke-linejoin="round" stroke-miterlimit="20" stroke-width="1.5" d="M4 9.538A5.538 5.538 0 0 1 9.538 4h14.924A5.538 5.538 0 0 1 30 9.538v14.924A5.538 5.538 0 0 1 24.462 30H9.538A5.538 5.538 0 0 1 4 24.462z"/></g><g><path fill="none" stroke="#ef0000" stroke-linecap="round" stroke-linejoin="round" stroke-miterlimit="20" stroke-width="1.5" d="M15.25 24h-3.5A1.75 1.75 0 0 1 10 22.25v-3.5c0-.967.783-1.75 1.75-1.75h3.5A1.75 1.75 0 0 1 17 18.75v3.5A1.75 1.75 0 0 1 15.25 24z"/></g><g><path fill="none" stroke="#ef0000" stroke-linecap="round" stroke-linejoin="round" stroke-miterlimit="20" stroke-width="1.5" d="M22.25 24v0h-3.5A1.75 1.75 0 0 1 17 22.25v-3.5c0-.967.783-1.75 1.75-1.75h3.5c.967 0 1.75.783 1.75 1.75v3.5A1.75 1.75 0 0 1 22.25 24z"/></g><g><path fill="none" stroke="#ef0000" stroke-linecap="round" stroke-linejoin="round" stroke-miterlimit="20" stroke-width="1.5" d="M19.25 17v0h-3.5A1.75 1.75 0 0 1 14 15.25v-3.5c0-.967.783-1.75 1.75-1.75h3.5c.967 0 1.75.783 1.75 1.75v3.5A1.75 1.75 0 0 1 19.25 17z"/></g><g/></g></g></svg>