<svg xmlns="http://www.w3.org/2000/svg" width="24" height="24" viewBox="0 0 24 24"><g><g><g/><g><path fill="none" stroke="#323232" stroke-linecap="round" stroke-linejoin="round" stroke-miterlimit="20" stroke-width="1.5" d="M12.177 10.823a.25.25 0 0 1-.177.427.25.25 0 1 1 .177-.427"/></g><g><path fill="none" stroke="#323232" stroke-linecap="round" stroke-linejoin="round" stroke-miterlimit="20" stroke-width="1.5" d="M16 11v0c0 1-.49 2-1.317 2.684l-1.31 1.044c-.519.409-.91.956-1.13 1.578L12 17v0l-.242-.694a3.49 3.49 0 0 0-1.13-1.578l-1.311-1.044C8.49 13 8 12 8 11v0"/></g><g><path fill="none" stroke="#323232" stroke-linecap="round" stroke-linejoin="round" stroke-miterlimit="20" stroke-width="1.5" d="M8 11a4 4 0 1 1 8 0"/></g><g><path fill="none" stroke="#323232" stroke-linecap="round" stroke-linejoin="round" stroke-miterlimit="20" stroke-width="1.5" d="M12 21.5a9.5 9.5 0 1 0 0-19 9.5 9.5 0 0 0 0 19z"/></g></g></g></svg>