<svg xmlns="http://www.w3.org/2000/svg" width="24" height="24" viewBox="0 0 24 24"><g><g><g/><g><path fill="none" stroke="#323232" stroke-linecap="round" stroke-linejoin="round" stroke-miterlimit="20" stroke-width="1.5" d="M12 21c5 0 9-4 9-9s-4-9-9-9-9 4-9 9 4 9 9 9z"/></g><g><path fill="none" stroke="#323232" stroke-linecap="round" stroke-linejoin="round" stroke-miterlimit="20" stroke-width="1.5" d="M14 10.5V8"/></g><g><path fill="none" stroke="#323232" stroke-linecap="round" stroke-linejoin="round" stroke-miterlimit="20" stroke-width="1.5" d="M10 10.5V8"/></g><g><path fill="none" stroke="#323232" stroke-linecap="round" stroke-linejoin="round" stroke-miterlimit="20" stroke-width="1.5" d="M12 21v-5"/></g><g><path fill="none" stroke="#323232" stroke-linecap="round" stroke-linejoin="round" stroke-miterlimit="20" stroke-width="1.5" d="M9.25 10.5h5.5a1 1 0 0 1 1 1V13a3 3 0 0 1-3 3h-1.5a3 3 0 0 1-3-3v-1.5a1 1 0 0 1 1-1z"/></g></g></g></svg>