<svg xmlns="http://www.w3.org/2000/svg" width="24" height="24" viewBox="0 0 24 24"><g><g><g><path fill="none" stroke="#323232" stroke-linecap="round" stroke-linejoin="round" stroke-miterlimit="20" stroke-width="1.5" d="M4 21v0h13.5a3.5 3.5 0 0 0 3.5-3.5v0a3.5 3.5 0 0 0-3.5-3.5H6a3 3 0 0 1-3-3v0a3 3 0 0 1 3-3h7v0"/></g><g><path fill="none" stroke="#323232" stroke-linecap="round" stroke-linejoin="round" stroke-miterlimit="20" stroke-width="1.5" d="M19.823 6v0H14a1 1 0 0 0-1 1v2a1 1 0 0 0 1 1h5a1 1 0 0 0 1-1V6.566a1 1 0 0 0-.485-.857L15 3v0"/></g><g/></g></g></svg>