<svg xmlns="http://www.w3.org/2000/svg" width="24" height="24" viewBox="0 0 24 24"><g><g><g><g><path fill="none" stroke="#323232" stroke-linecap="round" stroke-linejoin="round" stroke-miterlimit="20" stroke-width="1.5" d="M11.93 3v0c4.97 0 9 4 9 9s-4.03 9-9 9"/></g><g><path fill="none" stroke="#323232" stroke-linecap="round" stroke-linejoin="round" stroke-miterlimit="20" stroke-width="1.5" d="M8.858 20.447v0C7.871 20.09 7 19.563 6.15 18.89"/></g><g><path fill="none" stroke="#323232" stroke-linecap="round" stroke-linejoin="round" stroke-miterlimit="20" stroke-width="1.5" d="M6.15 5.107v0c.85-.674 1.721-1.2 2.708-1.557"/></g><g><path fill="none" stroke="#323232" stroke-linecap="round" stroke-linejoin="round" stroke-miterlimit="20" stroke-width="1.5" d="M3.07 10.438v0A8.957 8.957 0 0 1 4.137 7.5"/></g><g><path fill="none" stroke="#323232" stroke-linecap="round" stroke-linejoin="round" stroke-miterlimit="20" stroke-width="1.5" d="M3.07 13.56v0A8.955 8.955 0 0 0 4.137 16.5"/></g><g><path fill="none" stroke="#323232" stroke-linecap="round" stroke-linejoin="round" stroke-miterlimit="20" stroke-width="1.5" d="M12.33 15.33v0L14 12v0h-4v0l1.67-3.33v0"/></g><g><path fill="none" stroke="#323232" stroke-linecap="round" stroke-linejoin="round" stroke-miterlimit="20" stroke-width="1.5" d="M12.33 15.33v0L14 12v0h-4v0l1.67-3.33v0"/></g><g><path fill="none" stroke="#323232" stroke-linecap="round" stroke-linejoin="round" stroke-miterlimit="20" stroke-width="1.5" d="M12 21c5 0 9-4 9-9s-4-9-9-9-9 4-9 9 4 9 9 9z"/></g></g><g/></g></g></svg>